<?xml version="1.0" encoding="UTF-8" standalone="no"?>
<!DOCTYPE svg PUBLIC "-//W3C//DTD SVG 1.1//EN"
 "http://www.w3.org/Graphics/SVG/1.1/DTD/svg11.dtd">
<!-- Generated by graphviz version 2.40.1 (20161225.0304)
 -->
<!-- Title: %3 Pages: 1 -->
<svg width="1132pt" height="502pt"
 viewBox="0.00 0.00 1132.00 502.00" xmlns="http://www.w3.org/2000/svg" xmlns:xlink="http://www.w3.org/1999/xlink">
<g id="graph0" class="graph" transform="scale(1 1) rotate(0) translate(4 498)">
<title>%3</title>
<polygon fill="#ffffff" stroke="transparent" points="-4,4 -4,-498 1128,-498 1128,4 -4,4"/>
<g id="clust1" class="cluster">
<title>cluster_build_compiler</title>
<polygon fill="none" stroke="#000000" stroke-dasharray="1,5" points="196,-104 196,-233 499,-233 499,-104 196,-104"/>
<text text-anchor="middle" x="347.5" y="-217.8" font-family="Times,serif" font-size="14.00" fill="#000000">travis: compiler and targets</text>
</g>
<g id="clust5" class="cluster">
<title>cluster_travis_ci_targets</title>
<polygon fill="none" stroke="#000000" stroke-dasharray="1,5" points="739,-8 739,-137 846,-137 846,-8 739,-8"/>
<text text-anchor="middle" x="792.5" y="-121.8" font-family="Times,serif" font-size="14.00" fill="#000000">travis: ci_targets</text>
</g>
<g id="clust8" class="cluster">
<title>cluster_legend</title>
<polygon fill="none" stroke="#000000" stroke-dasharray="1,5" points="8,-249 8,-486 147,-486 147,-249 8,-249"/>
<text text-anchor="middle" x="77.5" y="-470.8" font-family="Times,serif" font-size="14.00" fill="#000000">Legend</text>
</g>
<!-- git_compiler -->
<g id="node1" class="node">
<title>git_compiler</title>
<g id="a_node1"><a xlink:href="https://github.com/kaitai-io/kaitai_struct_compiler" xlink:title="git: compiler">
<polygon fill="#ffffba" stroke="transparent" points="121,-239 34,-239 34,-203 121,-203 121,-239"/>
<text text-anchor="middle" x="77.5" y="-217.3" font-family="Times,serif" font-size="14.00" fill="#000000">git: compiler</text>
</a>
</g>
</g>
<!-- build_compiler_appveyor -->
<g id="node9" class="node">
<title>build_compiler_appveyor</title>
<g id="a_node9"><a xlink:href="https://ci.appveyor.com/project/GreyCat/kaitai-struct" xlink:title="appveyor: build_compiler">
<polygon fill="#d0d0d0" stroke="transparent" points="333,-358 175,-358 175,-322 333,-322 333,-358"/>
<text text-anchor="middle" x="254" y="-336.3" font-family="Times,serif" font-size="14.00" fill="#000000">appveyor: build_compiler</text>
</a>
</g>
</g>
<!-- git_compiler&#45;&gt;build_compiler_appveyor -->
<g id="edge2" class="edge">
<title>git_compiler&#45;&gt;build_compiler_appveyor</title>
<path fill="none" stroke="#000000" d="M121.3046,-233.1805C130.0983,-236.4307 139.0667,-240.3594 147,-245 179.2743,-263.879 210.5857,-293.3984 230.9096,-314.5199"/>
<polygon fill="#000000" stroke="#000000" points="228.4657,-317.0294 237.8817,-321.8863 233.5496,-312.2175 228.4657,-317.0294"/>
</g>
<!-- build_compiler -->
<g id="node12" class="node">
<title>build_compiler</title>
<polygon fill="#d3d3d3" stroke="transparent" points="304,-202 204,-202 204,-166 304,-166 304,-202"/>
<text text-anchor="middle" x="254" y="-180.3" font-family="Times,serif" font-size="14.00" fill="#000000">build_compiler</text>
</g>
<!-- git_compiler&#45;&gt;build_compiler -->
<g id="edge1" class="edge">
<title>git_compiler&#45;&gt;build_compiler</title>
<path fill="none" stroke="#000000" d="M121.1292,-211.8539C143.0134,-207.2663 169.8653,-201.6373 193.6885,-196.6432"/>
<polygon fill="#000000" stroke="#000000" points="194.6206,-200.024 203.6897,-194.5466 193.1843,-193.1729 194.6206,-200.024"/>
</g>
<!-- git_tests -->
<g id="node2" class="node">
<title>git_tests</title>
<g id="a_node2"><a xlink:href="https://github.com/kaitai-io/kaitai_struct_tests" xlink:title="git: tests">
<polygon fill="#ffffba" stroke="transparent" points="285,-96 223,-96 223,-60 285,-60 285,-96"/>
<text text-anchor="middle" x="254" y="-74.3" font-family="Times,serif" font-size="14.00" fill="#000000">git: tests</text>
</a>
</g>
</g>
<!-- build_formats -->
<g id="node15" class="node">
<title>build_formats</title>
<polygon fill="#d3d3d3" stroke="transparent" points="491,-148 398,-148 398,-112 491,-112 491,-148"/>
<text text-anchor="middle" x="444.5" y="-126.3" font-family="Times,serif" font-size="14.00" fill="#000000">build_formats</text>
</g>
<!-- git_tests&#45;&gt;build_formats -->
<g id="edge6" class="edge">
<title>git_tests&#45;&gt;build_formats</title>
<path fill="none" stroke="#000000" d="M285.0311,-86.4704C312.859,-94.0665 354.3756,-105.3991 388.0719,-114.597"/>
<polygon fill="#000000" stroke="#000000" points="387.2325,-117.9959 397.8013,-117.2528 389.0759,-111.243 387.2325,-117.9959"/>
</g>
<!-- build_ruby_1_9 -->
<g id="node16" class="node">
<title>build_ruby_1_9</title>
<polygon fill="#d3d3d3" stroke="transparent" points="823,-52 761,-52 761,-16 823,-16 823,-52"/>
<text text-anchor="middle" x="792" y="-30.3" font-family="Times,serif" font-size="14.00" fill="#000000">ruby/1.9</text>
</g>
<!-- git_tests&#45;&gt;build_ruby_1_9 -->
<g id="edge7" class="edge">
<title>git_tests&#45;&gt;build_ruby_1_9</title>
<path fill="none" stroke="#000000" d="M285.0085,-67.3327C358.7801,-43.2925 550.5668,11.3361 711,-11 724.2526,-12.8451 738.3833,-16.311 751.07,-20.0029"/>
<polygon fill="#000000" stroke="#000000" points="750.3049,-23.4284 760.8905,-22.9855 752.3392,-16.7305 750.3049,-23.4284"/>
</g>
<!-- build_ruby_2_3 -->
<g id="node17" class="node">
<title>build_ruby_2_3</title>
<polygon fill="#d3d3d3" stroke="transparent" points="823,-106 761,-106 761,-70 823,-70 823,-106"/>
<text text-anchor="middle" x="792" y="-84.3" font-family="Times,serif" font-size="14.00" fill="#000000">ruby/2.3</text>
</g>
<!-- git_tests&#45;&gt;build_ruby_2_3 -->
<g id="edge8" class="edge">
<title>git_tests&#45;&gt;build_ruby_2_3</title>
<path fill="none" stroke="#000000" d="M285.2506,-78.5809C377.2891,-80.2916 647.3726,-85.3118 750.9325,-87.2367"/>
<polygon fill="#000000" stroke="#000000" points="750.9358,-90.7372 760.9992,-87.4238 751.066,-83.7384 750.9358,-90.7372"/>
</g>
<!-- git_ci_artifacts -->
<g id="node3" class="node">
<title>git_ci_artifacts</title>
<g id="a_node3"><a xlink:href="https://github.com/kaitai-io/ci_artifacts" xlink:title="git: ci_artifacts">
<polygon fill="#baffc9" stroke="transparent" points="972,-79 874,-79 874,-43 972,-43 972,-79"/>
<text text-anchor="middle" x="923" y="-57.3" font-family="Times,serif" font-size="14.00" fill="#000000">git: ci_artifacts</text>
</a>
</g>
</g>
<!-- dashboard -->
<g id="node10" class="node">
<title>dashboard</title>
<g id="a_node10"><a xlink:href="https://ci.kaitai.io/" xlink:title="https://ci.kaitai.io/">
<polygon fill="#d3d3d3" stroke="transparent" points="1124,-79 1008,-79 1008,-43 1124,-43 1124,-79"/>
<text text-anchor="middle" x="1066" y="-57.3" font-family="Times,serif" font-size="14.00" fill="#000000">https://ci.kaitai.io/</text>
</a>
</g>
</g>
<!-- git_ci_artifacts&#45;&gt;dashboard -->
<g id="edge17" class="edge">
<title>git_ci_artifacts&#45;&gt;dashboard</title>
<path fill="none" stroke="#000000" d="M972.2125,-61C980.4582,-61 989.1433,-61 997.7649,-61"/>
<polygon fill="#000000" stroke="#000000" points="997.8268,-64.5001 1007.8268,-61 997.8267,-57.5001 997.8268,-64.5001"/>
</g>
<!-- artifact_deb -->
<g id="node4" class="node">
<title>artifact_deb</title>
<g id="a_node4"><a xlink:href="https://bintray.com/kaitai-io/debian_unstable/kaitai-struct-compiler" xlink:title="bintray: compiler .deb">
<polygon fill="#baffc9" stroke="transparent" points="513.5,-385 375.5,-385 375.5,-349 513.5,-349 513.5,-385"/>
<text text-anchor="middle" x="444.5" y="-363.3" font-family="Times,serif" font-size="14.00" fill="#000000">bintray: compiler .deb</text>
</a>
</g>
</g>
<!-- artifact_zip -->
<g id="node5" class="node">
<title>artifact_zip</title>
<g id="a_node5"><a xlink:href="https://bintray.com/kaitai-io/universal_unstable/kaitai-struct-compiler" xlink:title="bintray: compiler .zip">
<polygon fill="#baffc9" stroke="transparent" points="512,-331 377,-331 377,-295 512,-295 512,-331"/>
<text text-anchor="middle" x="444.5" y="-309.3" font-family="Times,serif" font-size="14.00" fill="#000000">bintray: compiler .zip</text>
</a>
</g>
</g>
<!-- artifact_js -->
<g id="node6" class="node">
<title>artifact_js</title>
<g id="a_node6"><a xlink:href="https://www.npmjs.com/package/kaitai-struct-compiler" xlink:title="npm: compiler .js">
<polygon fill="#baffc9" stroke="transparent" points="501.5,-277 387.5,-277 387.5,-241 501.5,-241 501.5,-277"/>
<text text-anchor="middle" x="444.5" y="-255.3" font-family="Times,serif" font-size="14.00" fill="#000000">npm: compiler .js</text>
</a>
</g>
</g>
<!-- web_ide_unstable -->
<g id="node11" class="node">
<title>web_ide_unstable</title>
<g id="a_node11"><a xlink:href="https://ide.kaitai.io/devel/" xlink:title="https://ide.kaitai.io/devel/">
<polygon fill="#d3d3d3" stroke="transparent" points="711,-277 556,-277 556,-241 711,-241 711,-277"/>
<text text-anchor="middle" x="633.5" y="-255.3" font-family="Times,serif" font-size="14.00" fill="#000000">https://ide.kaitai.io/devel/</text>
</a>
</g>
</g>
<!-- artifact_js&#45;&gt;web_ide_unstable -->
<g id="edge20" class="edge">
<title>artifact_js&#45;&gt;web_ide_unstable</title>
<path fill="none" stroke="#000000" d="M501.7191,-259C515.5785,-259 530.712,-259 545.6244,-259"/>
<polygon fill="#000000" stroke="#000000" points="545.8947,-262.5001 555.8946,-259 545.8946,-255.5001 545.8947,-262.5001"/>
</g>
<!-- artifact_msi -->
<g id="node7" class="node">
<title>artifact_msi</title>
<g id="a_node7"><a xlink:href="https://ci.appveyor.com/project/GreyCat/kaitai-struct/build/artifacts" xlink:title="appveyor: compiler .msi">
<polygon fill="#baffc9" stroke="transparent" points="520,-439 369,-439 369,-403 520,-403 520,-439"/>
<text text-anchor="middle" x="444.5" y="-417.3" font-family="Times,serif" font-size="14.00" fill="#000000">appveyor: compiler .msi</text>
</a>
</g>
</g>
<!-- artifact_ci_targets -->
<g id="node8" class="node">
<title>artifact_ci_targets</title>
<g id="a_node8"><a xlink:href="https://github.com/kaitai-io/ci_targets" xlink:title="git: ci_targets">
<polygon fill="#eaffe9" stroke="transparent" points="679,-148 588,-148 588,-112 679,-112 679,-148"/>
<text text-anchor="middle" x="633.5" y="-126.3" font-family="Times,serif" font-size="14.00" fill="#000000">git: ci_targets</text>
</a>
</g>
</g>
<!-- artifact_ci_targets&#45;&gt;build_ruby_1_9 -->
<g id="edge13" class="edge">
<title>artifact_ci_targets&#45;&gt;build_ruby_1_9</title>
<path fill="none" stroke="#000000" d="M659.452,-111.8978C680.5097,-97.4869 711.164,-77.13 739,-61 743.138,-58.6022 747.5133,-56.1883 751.9047,-53.8426"/>
<polygon fill="#000000" stroke="#000000" points="753.6332,-56.8884 760.8704,-49.1506 750.3875,-50.6864 753.6332,-56.8884"/>
</g>
<!-- artifact_ci_targets&#45;&gt;build_ruby_2_3 -->
<g id="edge14" class="edge">
<title>artifact_ci_targets&#45;&gt;build_ruby_2_3</title>
<path fill="none" stroke="#000000" d="M679.3448,-117.8519C702.0203,-111.8432 729.1619,-104.6511 751.1221,-98.832"/>
<polygon fill="#000000" stroke="#000000" points="752.0427,-102.2089 760.8126,-96.2642 750.2497,-95.4424 752.0427,-102.2089"/>
</g>
<!-- build_compiler_appveyor&#45;&gt;artifact_msi -->
<g id="edge3" class="edge">
<title>build_compiler_appveyor&#45;&gt;artifact_msi</title>
<path fill="none" stroke="#000000" d="M290.117,-358.0452C312.5762,-368.994 342.1868,-382.9399 369,-394 373.3553,-395.7965 377.8786,-397.5899 382.4493,-399.3496"/>
<polygon fill="#000000" stroke="#000000" points="381.2677,-402.6446 391.8593,-402.9045 383.7415,-396.0963 381.2677,-402.6446"/>
</g>
<!-- build_compiler&#45;&gt;artifact_deb -->
<g id="edge9" class="edge">
<title>build_compiler&#45;&gt;artifact_deb</title>
<path fill="none" stroke="#000000" d="M262.7613,-202.1526C279.2033,-234.3962 317.7034,-301.8475 369,-340 370.8151,-341.35 372.704,-342.6374 374.6499,-343.8647"/>
<polygon fill="#000000" stroke="#000000" points="373.0689,-346.9915 383.4961,-348.8688 376.5155,-340.8988 373.0689,-346.9915"/>
</g>
<!-- build_compiler&#45;&gt;artifact_zip -->
<g id="edge10" class="edge">
<title>build_compiler&#45;&gt;artifact_zip</title>
<path fill="none" stroke="#000000" d="M270.2611,-202.1863C291.1657,-224.6105 329.5006,-262.6171 369,-286 371.6691,-287.58 374.4455,-289.0896 377.2903,-290.5289"/>
<polygon fill="#000000" stroke="#000000" points="376.0221,-293.8001 386.561,-294.8872 379.0002,-287.4652 376.0221,-293.8001"/>
</g>
<!-- build_compiler&#45;&gt;artifact_js -->
<g id="edge11" class="edge">
<title>build_compiler&#45;&gt;artifact_js</title>
<path fill="none" stroke="#000000" d="M289.6736,-202.1071C312.0929,-213.0666 341.8184,-226.8401 369,-237 371.8495,-238.0651 374.7749,-239.1114 377.7414,-240.1342"/>
<polygon fill="#000000" stroke="#000000" points="376.7194,-243.4827 387.3129,-243.3146 378.9267,-236.8398 376.7194,-243.4827"/>
</g>
<!-- test_compiler -->
<g id="node14" class="node">
<title>test_compiler</title>
<polygon fill="#d3d3d3" stroke="transparent" points="490,-202 399,-202 399,-166 490,-166 490,-202"/>
<text text-anchor="middle" x="444.5" y="-180.3" font-family="Times,serif" font-size="14.00" fill="#000000">test_compiler</text>
</g>
<!-- build_compiler&#45;&gt;test_compiler -->
<g id="edge4" class="edge">
<title>build_compiler&#45;&gt;test_compiler</title>
<path fill="none" stroke="#000000" d="M304.0516,-184C329.9386,-184 361.6241,-184 388.3435,-184"/>
<polygon fill="#000000" stroke="#000000" points="388.6963,-187.5001 398.6963,-184 388.6963,-180.5001 388.6963,-187.5001"/>
</g>
<!-- build_compiler&#45;&gt;build_formats -->
<g id="edge5" class="edge">
<title>build_compiler&#45;&gt;build_formats</title>
<path fill="none" stroke="#000000" d="M304.0516,-169.8121C329.7599,-162.5247 361.1869,-153.6163 387.7894,-146.0754"/>
<polygon fill="#000000" stroke="#000000" points="389.0605,-149.3531 397.7269,-143.2585 387.1515,-142.6184 389.0605,-149.3531"/>
</g>
<!-- git_runtime_ruby -->
<g id="node13" class="node">
<title>git_runtime_ruby</title>
<g id="a_node13"><a xlink:href="https://github.com/kaitai-io/kaitai_struct_ruby_runtime" xlink:title="git: runtime_ruby">
<polygon fill="#ffffba" stroke="transparent" points="690,-56 577,-56 577,-20 690,-20 690,-56"/>
<text text-anchor="middle" x="633.5" y="-34.3" font-family="Times,serif" font-size="14.00" fill="#000000">git: runtime_ruby</text>
</a>
</g>
</g>
<!-- git_runtime_ruby&#45;&gt;build_ruby_1_9 -->
<g id="edge18" class="edge">
<title>git_runtime_ruby&#45;&gt;build_ruby_1_9</title>
<path fill="none" stroke="#000000" d="M690.2744,-36.5672C710.2677,-36.0626 732.3414,-35.5056 750.8027,-35.0397"/>
<polygon fill="#000000" stroke="#000000" points="751.0222,-38.5354 760.9307,-34.7841 750.8455,-31.5376 751.0222,-38.5354"/>
</g>
<!-- git_runtime_ruby&#45;&gt;build_ruby_2_3 -->
<g id="edge19" class="edge">
<title>git_runtime_ruby&#45;&gt;build_ruby_2_3</title>
<path fill="none" stroke="#000000" d="M690.2744,-55.9099C710.4537,-62.2756 732.7523,-69.3099 751.317,-75.1662"/>
<polygon fill="#000000" stroke="#000000" points="750.341,-78.5283 760.9307,-78.199 752.4469,-71.8526 750.341,-78.5283"/>
</g>
<!-- build_formats&#45;&gt;artifact_ci_targets -->
<g id="edge12" class="edge">
<title>build_formats&#45;&gt;artifact_ci_targets</title>
<path fill="none" stroke="#000000" d="M491.2191,-130C517.3902,-130 550.1962,-130 577.7097,-130"/>
<polygon fill="#000000" stroke="#000000" points="577.9705,-133.5001 587.9705,-130 577.9704,-126.5001 577.9705,-133.5001"/>
</g>
<!-- build_ruby_1_9&#45;&gt;git_ci_artifacts -->
<g id="edge15" class="edge">
<title>build_ruby_1_9&#45;&gt;git_ci_artifacts</title>
<path fill="none" stroke="#000000" d="M823.0452,-40.3986C835.2828,-42.9209 849.7635,-45.9055 863.849,-48.8086"/>
<polygon fill="#000000" stroke="#000000" points="863.4971,-52.3095 873.9977,-50.9003 864.9102,-45.4536 863.4971,-52.3095"/>
</g>
<!-- build_ruby_2_3&#45;&gt;git_ci_artifacts -->
<g id="edge16" class="edge">
<title>build_ruby_2_3&#45;&gt;git_ci_artifacts</title>
<path fill="none" stroke="#000000" d="M823.0452,-81.6014C835.2828,-79.0791 849.7635,-76.0945 863.849,-73.1914"/>
<polygon fill="#000000" stroke="#000000" points="864.9102,-76.5464 873.9977,-71.0997 863.4971,-69.6905 864.9102,-76.5464"/>
</g>
<!-- legend_artifact_int -->
<g id="node18" class="node">
<title>legend_artifact_int</title>
<polygon fill="#eaffe9" stroke="transparent" points="139,-455 16,-455 16,-419 139,-419 139,-455"/>
<text text-anchor="middle" x="77.5" y="-433.3" font-family="Times,serif" font-size="14.00" fill="#000000">Intemediate artifact</text>
</g>
<!-- legend_artifact_final -->
<g id="node19" class="node">
<title>legend_artifact_final</title>
<polygon fill="#baffc9" stroke="transparent" points="120.5,-401 34.5,-401 34.5,-365 120.5,-365 120.5,-401"/>
<text text-anchor="middle" x="77.5" y="-379.3" font-family="Times,serif" font-size="14.00" fill="#000000">Final artifact</text>
</g>
<!-- legend_source -->
<g id="node20" class="node">
<title>legend_source</title>
<polygon fill="#ffffba" stroke="transparent" points="118.5,-347 36.5,-347 36.5,-311 118.5,-311 118.5,-347"/>
<text text-anchor="middle" x="77.5" y="-325.3" font-family="Times,serif" font-size="14.00" fill="#000000">Source repo</text>
</g>
<!-- legend_build -->
<g id="node21" class="node">
<title>legend_build</title>
<polygon fill="#d0d0d0" stroke="transparent" points="123,-293 32,-293 32,-257 123,-257 123,-293"/>
<text text-anchor="middle" x="77.5" y="-271.3" font-family="Times,serif" font-size="14.00" fill="#000000">Build process</text>
</g>
</g>
</svg>
