<?xml version="1.0" encoding="UTF-8" standalone="no"?>
<!DOCTYPE svg PUBLIC "-//W3C//DTD SVG 1.1//EN"
 "http://www.w3.org/Graphics/SVG/1.1/DTD/svg11.dtd">
<!-- Generated by graphviz version 2.38.0 (20140413.2041)
 -->
<!-- Title: %3 Pages: 1 -->
<svg width="371pt" height="210pt"
 viewBox="0.00 0.00 371.00 210.00" xmlns="http://www.w3.org/2000/svg" xmlns:xlink="http://www.w3.org/1999/xlink">
<g id="graph0" class="graph" transform="scale(1 1) rotate(0) translate(4 206)">
<title>%3</title>
<polygon fill="white" stroke="none" points="-4,4 -4,-206 367,-206 367,4 -4,4"/>
<g id="clust1" class="cluster"><title>cluster__opcode_jmp</title>
<polygon fill="none" stroke="black" stroke-dasharray="1,5" points="8,-105 8,-194 160,-194 160,-105 8,-105"/>
<text text-anchor="middle" x="84" y="-178.8" font-family="Times,serif" font-size="14.00">Meh::OpcodeJmp</text>
</g>
<g id="clust2" class="cluster"><title>cluster__opcode_push</title>
<polygon fill="none" stroke="black" stroke-dasharray="1,5" points="8.5,-8 8.5,-97 159.5,-97 159.5,-8 8.5,-8"/>
<text text-anchor="middle" x="84" y="-81.8" font-family="Times,serif" font-size="14.00">OpcodePush</text>
</g>
<g id="clust3" class="cluster"><title>cluster__arg</title>
<polygon fill="none" stroke="black" stroke-dasharray="1,5" points="180,-40 180,-151 355,-151 355,-40 180,-40"/>
<text text-anchor="middle" x="267.5" y="-135.8" font-family="Times,serif" font-size="14.00">Arg</text>
</g>
<!-- opcode_jmp__seq -->
<g id="node1" class="node"><title>opcode_jmp__seq</title>
<polygon fill="#e0ffe0" stroke="none" points="24,-138 24,-159 49,-159 49,-138 24,-138"/>
<polygon fill="none" stroke="black" points="24,-138 24,-159 49,-159 49,-138 24,-138"/>
<text text-anchor="start" x="27" y="-144.8" font-family="Times,serif" font-size="14.00">pos</text>
<polygon fill="#e0ffe0" stroke="none" points="49,-138 49,-159 77,-159 77,-138 49,-138"/>
<polygon fill="none" stroke="black" points="49,-138 49,-159 77,-159 77,-138 49,-138"/>
<text text-anchor="start" x="52" y="-144.8" font-family="Times,serif" font-size="14.00">size</text>
<polygon fill="#e0ffe0" stroke="none" points="77,-138 77,-159 107,-159 107,-138 77,-138"/>
<polygon fill="none" stroke="black" points="77,-138 77,-159 107,-159 107,-138 77,-138"/>
<text text-anchor="start" x="80" y="-144.8" font-family="Times,serif" font-size="14.00">type</text>
<polygon fill="#e0ffe0" stroke="none" points="107,-138 107,-159 144,-159 144,-138 107,-138"/>
<polygon fill="none" stroke="black" points="107,-138 107,-159 144,-159 144,-138 107,-138"/>
<text text-anchor="start" x="120" y="-144.8" font-family="Times,serif" font-size="14.00">id</text>
<polygon fill="none" stroke="black" points="24,-117 24,-138 49,-138 49,-117 24,-117"/>
<text text-anchor="start" x="33" y="-123.8" font-family="Times,serif" font-size="14.00">0</text>
<polygon fill="none" stroke="black" points="49,-117 49,-138 77,-138 77,-117 49,-117"/>
<text text-anchor="start" x="57" y="-123.8" font-family="Times,serif" font-size="14.00">...</text>
<polygon fill="none" stroke="black" points="77,-117 77,-138 107,-138 107,-117 77,-117"/>
<text text-anchor="start" x="81" y="-123.8" font-family="Times,serif" font-size="14.00">Arg</text>
<polygon fill="none" stroke="black" points="107,-117 107,-138 144,-138 144,-117 107,-117"/>
<text text-anchor="start" x="110" y="-123.8" font-family="Times,serif" font-size="14.00">target</text>
</g>
<!-- arg__seq -->
<g id="node3" class="node"><title>arg__seq</title>
<polygon fill="#e0ffe0" stroke="none" points="196.5,-94 196.5,-115 221.5,-115 221.5,-94 196.5,-94"/>
<polygon fill="none" stroke="black" points="196.5,-94 196.5,-115 221.5,-115 221.5,-94 196.5,-94"/>
<text text-anchor="start" x="199.5" y="-100.8" font-family="Times,serif" font-size="14.00">pos</text>
<polygon fill="#e0ffe0" stroke="none" points="221.5,-94 221.5,-115 249.5,-115 249.5,-94 221.5,-94"/>
<polygon fill="none" stroke="black" points="221.5,-94 221.5,-115 249.5,-115 249.5,-94 221.5,-94"/>
<text text-anchor="start" x="224.5" y="-100.8" font-family="Times,serif" font-size="14.00">size</text>
<polygon fill="#e0ffe0" stroke="none" points="249.5,-94 249.5,-115 279.5,-115 279.5,-94 249.5,-94"/>
<polygon fill="none" stroke="black" points="249.5,-94 249.5,-115 279.5,-115 279.5,-94 249.5,-94"/>
<text text-anchor="start" x="252.5" y="-100.8" font-family="Times,serif" font-size="14.00">type</text>
<polygon fill="#e0ffe0" stroke="none" points="279.5,-94 279.5,-115 339.5,-115 339.5,-94 279.5,-94"/>
<polygon fill="none" stroke="black" points="279.5,-94 279.5,-115 339.5,-115 339.5,-94 279.5,-94"/>
<text text-anchor="start" x="304" y="-100.8" font-family="Times,serif" font-size="14.00">id</text>
<polygon fill="none" stroke="black" points="196.5,-73 196.5,-94 221.5,-94 221.5,-73 196.5,-73"/>
<text text-anchor="start" x="205.5" y="-79.8" font-family="Times,serif" font-size="14.00">0</text>
<polygon fill="none" stroke="black" points="221.5,-73 221.5,-94 249.5,-94 249.5,-73 221.5,-73"/>
<text text-anchor="start" x="232" y="-79.8" font-family="Times,serif" font-size="14.00">1</text>
<polygon fill="none" stroke="black" points="249.5,-73 249.5,-94 279.5,-94 279.5,-73 249.5,-73"/>
<text text-anchor="start" x="257.5" y="-79.8" font-family="Times,serif" font-size="14.00">u1</text>
<polygon fill="none" stroke="black" points="279.5,-73 279.5,-94 339.5,-94 339.5,-73 279.5,-73"/>
<text text-anchor="start" x="285.5" y="-79.8" font-family="Times,serif" font-size="14.00">arg_type</text>
<polygon fill="none" stroke="black" points="196.5,-52 196.5,-73 221.5,-73 221.5,-52 196.5,-52"/>
<text text-anchor="start" x="205.5" y="-58.8" font-family="Times,serif" font-size="14.00">1</text>
<polygon fill="none" stroke="black" points="221.5,-52 221.5,-73 249.5,-73 249.5,-52 221.5,-52"/>
<text text-anchor="start" x="232" y="-58.8" font-family="Times,serif" font-size="14.00">1</text>
<polygon fill="none" stroke="black" points="249.5,-52 249.5,-73 279.5,-73 279.5,-52 249.5,-52"/>
<text text-anchor="start" x="257.5" y="-58.8" font-family="Times,serif" font-size="14.00">u1</text>
<polygon fill="none" stroke="black" points="279.5,-52 279.5,-73 339.5,-73 339.5,-52 279.5,-52"/>
<text text-anchor="start" x="282.5" y="-58.8" font-family="Times,serif" font-size="14.00">arg_value</text>
</g>
<!-- opcode_jmp__seq&#45;&gt;arg__seq -->
<g id="edge1" class="edge"><title>opcode_jmp__seq:target_type&#45;&gt;arg__seq</title>
<path fill="none" stroke="black" stroke-width="2" d="M145,-127C156.887,-127 169.073,-125.148 180.922,-122.213"/>
<polygon fill="black" stroke="black" stroke-width="2" points="182.063,-125.53 190.781,-119.51 180.212,-118.779 182.063,-125.53"/>
</g>
<!-- opcode_push__seq -->
<g id="node2" class="node"><title>opcode_push__seq</title>
<polygon fill="#e0ffe0" stroke="none" points="25,-41 25,-62 50,-62 50,-41 25,-41"/>
<polygon fill="none" stroke="black" points="25,-41 25,-62 50,-62 50,-41 25,-41"/>
<text text-anchor="start" x="28" y="-47.8" font-family="Times,serif" font-size="14.00">pos</text>
<polygon fill="#e0ffe0" stroke="none" points="50,-41 50,-62 78,-62 78,-41 50,-41"/>
<polygon fill="none" stroke="black" points="50,-41 50,-62 78,-62 78,-41 50,-41"/>
<text text-anchor="start" x="53" y="-47.8" font-family="Times,serif" font-size="14.00">size</text>
<polygon fill="#e0ffe0" stroke="none" points="78,-41 78,-62 108,-62 108,-41 78,-41"/>
<polygon fill="none" stroke="black" points="78,-41 78,-62 108,-62 108,-41 78,-41"/>
<text text-anchor="start" x="81" y="-47.8" font-family="Times,serif" font-size="14.00">type</text>
<polygon fill="#e0ffe0" stroke="none" points="108,-41 108,-62 144,-62 144,-41 108,-41"/>
<polygon fill="none" stroke="black" points="108,-41 108,-62 144,-62 144,-41 108,-41"/>
<text text-anchor="start" x="120.5" y="-47.8" font-family="Times,serif" font-size="14.00">id</text>
<polygon fill="none" stroke="black" points="25,-20 25,-41 50,-41 50,-20 25,-20"/>
<text text-anchor="start" x="34" y="-26.8" font-family="Times,serif" font-size="14.00">0</text>
<polygon fill="none" stroke="black" points="50,-20 50,-41 78,-41 78,-20 50,-20"/>
<text text-anchor="start" x="58" y="-26.8" font-family="Times,serif" font-size="14.00">...</text>
<polygon fill="none" stroke="black" points="78,-20 78,-41 108,-41 108,-20 78,-20"/>
<text text-anchor="start" x="82" y="-26.8" font-family="Times,serif" font-size="14.00">Arg</text>
<polygon fill="none" stroke="black" points="108,-20 108,-41 144,-41 144,-20 108,-20"/>
<text text-anchor="start" x="111" y="-26.8" font-family="Times,serif" font-size="14.00">value</text>
</g>
<!-- opcode_push__seq&#45;&gt;arg__seq -->
<g id="edge2" class="edge"><title>opcode_push__seq:value_type&#45;&gt;arg__seq</title>
<path fill="none" stroke="black" stroke-width="2" d="M145,-30C164.755,-30 184.881,-36.035 202.921,-44.07"/>
<polygon fill="black" stroke="black" stroke-width="2" points="201.615,-47.324 212.152,-48.4327 204.606,-40.9953 201.615,-47.324"/>
</g>
</g>
</svg>
